# AST/ASF file generated using VICON BodyLanguage
# -----------------------------------------------
:version 1.10
:name VICON
:units
  mass 1.0
  length 0.45
  angle deg
:documentation
   .ast/.asf automatically generated from VICON data using
   VICON BodyBuilder and BodyLanguage model FoxedUp or BRILLIANT.MOD
:root
   order TX TY TZ RX RY RZ
   axis XYZ
   position 0 0 0  
   orientation 0 0 0 
:bonedata
  begin
     id 1 
     name lhipjoint
     direction 0.645422 -0.672597 0.361999 
     length 2.39934 
     axis 0 0 0  XYZ
  end
  begin
     id 2 
     name lfemur
     direction 0.34202 -0.939693 0  
     length 6.58112  
     axis 0 0 20  XYZ
    dof rx ry rz
    limits (-160.0 20.0)
           (-70.0 70.0)
           (-60.0 70.0)
  end
  begin
     id 3 
     name ltibia
     direction 0.34202 -0.939693 0   
     length 7.02673   
     axis 0 0 20   XYZ
    dof rx
    limits (-10.0 170.0)
  end
  begin
     id 4 
     name lfoot
     direction 0.0835106 -0.229444 0.969733   
     length 2.08772   
     axis -90 7.62852e-016 20   XYZ
    dof rx rz
    limits (-45.0 90.0)
           (-70.0 20.0)
  end
  begin
     id 5 
     name ltoes
     direction 1.5358e-011 -4.21925e-011 1   
     length 1.04844   
     axis -90 7.62852e-016 20   XYZ
    dof rx
    limits (-90.0 20.0)
  end
  begin
     id 6 
     name rhipjoint
     direction -0.644959 -0.672941 0.362185   
     length 2.39812  
     axis 0 0 0  XYZ 
  end
  begin
     id 7 
     name rfemur
     direction -0.34202 -0.939693 0   
     length 6.67015   
     axis 0 0 -20   XYZ
    dof rx ry rz
    limits (-160.0 20.0)
           (-70.0 70.0)
           (-70.0 60.0)
  end
  begin
     id 8 
     name rtibia
     direction -0.34202 -0.939693 0   
     length 7.35735   
     axis 0 0 -20   XYZ
    dof rx
    limits (-10.0 170.0)
 end
 begin
     id 9 
     name rfoot
     direction -0.0670769 -0.184292 0.98058   
     length 2.25469  
     axis -90 -7.62852e-016 -20   XYZ
    dof rx rz
    limits (-45.0 90.0)
           (-20.0 70.0)
  end
  begin
     id 10 
     name rtoes
     direction -1.53575e-011 -4.21908e-011 1   
     length 1.13399   
     axis -90 -7.62852e-016 -20   XYZ
    dof rx
    limits (-90.0 20.0)
  end
  begin
     id 11 
     name lowerback
     direction -0.0188328 0.993434 -0.112847   
     length 2.27656   
     axis 0 0 0   XYZ
    dof rx ry rz
    limits (-20.0 45.0)
           (-30.0 30.0)
           (-30.0 30.0)
  end
  begin
     id 12 
     name upperback
     direction 0.00983139 0.998968 -0.04435   
     length 2.28631   
     axis 0 0 0   XYZ
    dof rx ry rz
    limits (-20.0 45.0)
           (-30.0 30.0)
           (-30.0 30.0)
  end
  begin
     id 13 
     name thorax
     direction 0.0177718 0.999807 0.00833073   
     length 2.30999   
     axis 0 0 0   XYZ
    dof rx ry rz
    limits (-20.0 45.0)
           (-30.0 30.0)
           (-30.0 30.0)
  end
  begin
     id 14 
     name lowerneck
     direction -0.0835025 0.993181 0.0813558   
     length 1.39447   
     axis 0 0 0   XYZ
    dof rx ry rz
    limits (-20.0 45.0)
           (-30.0 30.0)
           (-30.0 30.0)
  end
  begin
     id 15 
     name upperneck
     direction 0.210059 0.976535 0.0474817   
     length 1.39882   
     axis 0 0 0   XYZ
    dof rx ry rz
    limits (-20.0 45.0)
           (-30.0 30.0)
           (-30.0 30.0)
  end
  begin
     id 16
     name head
     direction 0.0780891 0.996944 -0.00207154  
     length 1.41828  
     axis 0 0 0   XYZ
    dof rx ry rz
    limits (-20.0 45.0)
           (-30.0 30.0)
           (-30.0 30.0)
  end
  begin
     id 17 
     name lclavicle
     direction 0.982414 0.166355 -0.0847829  
     length 3.57922  
     axis 0 0 0   XYZ
    dof ry rz
    limits (-20.0 10.0)
           (0.0 20.0)
  end
  begin
     id 18 
     name lhumerus
     direction 1 -4.48975e-011 5.47647e-028   
     length 4.76405   
     axis -180 -30 -90   XYZ
    dof rx ry rz
    limits (-60.0 90.0)
           (-90.0 90.0)
           (-90.0 90.0)
  end
  begin
     id 19
     name lradius
     direction 1 -4.48949e-011 -8.32142e-027   
     length 3.13759   
     axis -180 -30 -90   XYZ
    dof rx
    limits (-10.0 170.0)
  end
  begin
     id 20
     name lwrist
     direction 1 -4.48978e-011 -1.32705e-026   
     length 1.56879   
     axis 9.60836e-015 90 90   XYZ
    dof ry
    limits (-180.0 0.0)
 end
  begin
     id 21 
     name lhand
     direction 1 -4.48975e-011 -2.65409e-026   
     length 0.732262   
     axis 1.69354e-014 90 90   XYZ
    dof rx rz
    limits (-90.0 90.0)
           (-45.0 45.0)
  end
  begin
     id 22 
     name lfingers
     direction 1 -4.48923e-011 -5.30819e-026   
     length 0.590368   
     axis 3.38708e-014 90 90   XYZ
    dof rx
    limits (0.0 90.0)
  end
  begin
     id 23
     name lthumb
     direction 0.707107 -6.34914e-011 0.707107   
     length 0.847654   
     axis -90 45 2.85299e-015   XYZ
    dof rx rz
    limits (-45.0 45.0)
           (-45.0 45.0)
  end
  begin
     id 24 
     name rclavicle
     direction -0.963658 0.245183 -0.106063   
     length 3.43472  
     axis 0 0 0   XYZ 
    dof ry rz
    limits (-10.0 20.0)
           (-20.0 0.0)
  end
  begin
     id 25 
     name rhumerus
     direction -1 -4.48963e-011 -1.64784e-027  
     length 5.10161   
     axis -180 30 90   XYZ
    dof rx ry rz
    limits (-90.0 60.0)
           (-90.0 90.0)
           (-90.0 90.0)
  end
  begin
     id 26 
     name rradius
     direction -1 -4.48969e-011 -2.87943e-027   
     length 3.23267   
     axis -180 30 90   XYZ
    dof rx
    limits (-10.0 170.0)
  end
  begin
     id 27 
     name rwrist
     direction -1 -4.48982e-011 -1.32705e-026   
     length 1.61633   
     axis 9.60836e-015 -90 -90   XYZ
    dof ry
    limits (-180.0 0.0)
  end
  begin
     id 28
     name rhand
     direction -1 -4.48963e-011 -2.65409e-026   
     length 0.702   
     axis 1.69354e-014 -90 -90   XYZ
    dof rx rz
    limits (-90.0 90.0)
           (-45.0 45.0)
  end
  begin
     id 29
     name rfingers
     direction -1 -4.48934e-011 -5.30819e-026   
     length 0.565971   
     axis 3.38708e-014 -90 -90   XYZ
    dof rx
    limits (0.0 90.0)
  end
  begin
     id 30
     name rthumb
     direction -0.707107 -6.34908e-011 0.707107   
     length 0.812624   
     axis -90 -45 -2.85299e-015   XYZ
    dof rx rz
    limits (-45.0 45.0)
           (-45.0 45.0)
  end
:hierarchy
  begin
    root lhipjoint rhipjoint lowerback
    lhipjoint lfemur
    lfemur ltibia
    ltibia lfoot
    lfoot ltoes
    rhipjoint rfemur
    rfemur rtibia
    rtibia rfoot
    rfoot rtoes
    lowerback upperback
    upperback thorax
    thorax lowerneck lclavicle rclavicle
    lowerneck upperneck
    upperneck head
    lclavicle lhumerus
    lhumerus lradius
    lradius lwrist
    lwrist lhand lthumb
    lhand lfingers
    rclavicle rhumerus
    rhumerus rradius
    rradius rwrist
    rwrist rhand rthumb
    rhand rfingers
  end

#!OML:ASF E:\basketball\basketball\Project 1\Capture day 1\Session 1\Subject.ASF
:FULLY-SPECIFIED
:DEGREES
17
root -37.4513 15.4375 -16.3475 17.1452 78.6917 18.3776
lowerback -2.61027 -3.16304 -0.383564
upperback 7.27241 -4.04987 -0.579167
thorax 9.10641 -1.92829 -0.811852
lowerneck -9.35143 0.966839 -18.7552
upperneck 2.4014 2.80899 15.6019
head 1.75467 1.73394 8.05609
rclavicle 1.60519e-014 7.95139e-015
rhumerus -30.7367 -1.30973 -90.4235
rradius 78.7712
rwrist 14.5137
rhand -21.5362 9.28974
rfingers 7.12502
rthumb 4.8566 -20.6346
lclavicle 1.60519e-014 7.95139e-015
lhumerus -33.7688 -14.7 104.753
lradius 110.297
lwrist 27.5995
lhand -11.7234 27.3786
lfingers 7.12502
lthumb 14.3235 56.8645
rfemur -9.70751 -9.60897 17.2163
rtibia 46.4006
rfoot -35.981 -16.3478
rtoes 6.42394
lfemur -6.88178 -5.31954 -26.5023
ltibia 34.6713
lfoot -23.0836 -3.43775
ltoes 16.2905
18
root -37.4352 15.4342 -16.3423 17.334 78.3659 18.3847
lowerback -2.44975 -3.30467 -0.116072
upperback 7.63708 -4.22826 -0.792559
thorax 9.37593 -1.97773 -1.20729
lowerneck -12.3312 0.637043 -19.6973
upperneck 3.24737 2.93907 16.4478
head 2.44536 1.92199 8.59269
rclavicle -1.30701e-014 9.54166e-015
rhumerus -29.6035 -0.99247 -90.8582
rradius 78.5474
rwrist 14.9753
rhand -21.5726 8.36282
rfingers 7.12502
rthumb 4.82142 -21.5623
lclavicle -1.30701e-014 9.54166e-015
lhumerus -32.8096 -14.4371 104.093
lradius 110.281
lwrist 27.4225
lhand -11.5879 27.3319
lfingers 7.12502
lthumb 14.4541 56.8085
rfemur -10.1086 -9.36586 17.1607
rtibia 46.8406
rfoot -36.0984 -16.494
rtoes 5.82186
lfemur -7.43179 -5.49185 -26.6166
ltibia 35.3909
lfoot -22.1161 -2.83761
ltoes 17.2896
19
root -37.4209 15.4036 -16.3377 15.589 78.1266 16.5161
lowerback -2.33832 -2.25618 -0.312026
upperback 7.54721 -2.80821 -0.721043
thorax 9.24163 -1.30223 -0.867161
lowerneck -11.2936 0.149571 -17.4479
upperneck 3.02448 1.82151 15.5357
head 2.44783 1.32376 7.82951
rclavicle -2.99171e-014 3.97569e-016
rhumerus -30.0761 -3.96479 -90.2577
rradius 78.8309
rwrist 15.4823
rhand -21.5943 7.4989
rfingers 7.12502
rthumb 4.80048 -22.4267
lclavicle -2.99171e-014 3.97569e-016
lhumerus -33.4438 -17.2077 104.909
lradius 109.942
lwrist 27.7309
lhand -11.5328 27.246
lfingers 7.12502
lthumb 14.5072 56.7188
rfemur -10.424 -9.16197 17.5776
rtibia 47.3016
rfoot -36.5008 -16.5806
rtoes 6.22491
lfemur -7.71751 -5.53873 -26.3431
ltibia 35.969
lfoot -22.5172 -2.86737
ltoes 18.5707
20
root -37.3984 15.3747 -16.337 15.2191 77.9356 16.0892
lowerback -2.46852 -3.0505 -0.711376
upperback 6.8132 -3.92541 -0.14969
thorax 8.57457 -1.91859 -0.141313
lowerneck -8.9701 1.41526 -19.6216
upperneck 2.81206 3.3914 16.1872
head 1.68147 2.01175 8.41092
rclavicle -7.38485e-014 1.98785e-014
rhumerus -31.6277 -1.19887 -89.9098
rradius 78.9357
rwrist 15.8821
rhand -21.476 6.50105
rfingers 7.12502
rthumb 4.91473 -23.422
lclavicle -7.38485e-014 1.98785e-014
lhumerus -34.6523 -14.2199 105.826
lradius 110.233
lwrist 27.334
lhand -11.4776 27.0455
lfingers 7.12502
lthumb 14.5604 56.5144
rfemur -10.6866 -9.23644 17.5633
rtibia 47.8806
rfoot -37.0693 -16.1602
rtoes 7.29009
lfemur -7.82352 -5.67394 -26.4021
ltibia 36.3794
lfoot -23.1132 -3.57549
ltoes 20.0147
21
root -37.3707 15.3568 -16.3341 16.1719 77.7696 17.0164
lowerback -2.4403 -2.95529 -0.799041
upperback 6.95168 -3.77253 -0.330724
thorax 8.70114 -1.83965 -0.270581
lowerneck -9.99505 1.21005 -19.7474
upperneck 3.14479 3.27797 16.6408
head 1.9609 2.00546 8.61617
rclavicle -2.8625e-014 7.15625e-015
rhumerus -31.5288 -1.87305 -89.9651
rradius 79.1292
rwrist 16.7922
rhand -21.4136 5.6163
rfingers 7.12502
rthumb 4.97496 -24.3053
lclavicle -2.8625e-014 7.15625e-015
lhumerus -34.4304 -14.7408 105.783
lradius 110.035
lwrist 27.2006
lhand -11.39 26.9174
lfingers 7.12502
lthumb 14.6447 56.3802
rfemur -10.8885 -9.51033 17.1727
rtibia 48.4388
rfoot -37.2901 -15.7613
rtoes 7.22233
lfemur -7.84809 -5.86461 -26.7415
ltibia 36.6556
lfoot -23.6114 -3.78748
ltoes 20.5004
22
root -37.3581 15.2928 -16.3296 17.0437 77.6027 17.8574
lowerback -2.55346 -2.9949 -1.09086
upperback 6.92191 -3.80387 -0.364939
thorax 8.75413 -1.8738 -0.153723
lowerneck -10.1408 1.19647 -19.8845
upperneck 3.54147 3.26015 16.8586
head 2.09757 2.00205 8.72549
rclavicle 3.46879e-014 -1.59028e-015
rhumerus -31.7863 -1.90133 -89.9483
rradius 79.2617
rwrist 17.3039
rhand -21.3926 4.70904
rfingers 7.12502
rthumb 4.99526 -25.2121
lclavicle 3.46879e-014 -1.59028e-015
lhumerus -34.3858 -14.6954 105.832
lradius 109.857
lwrist 27.1085
lhand -11.2877 26.8118
lfingers 7.12502
lthumb 14.7434 56.2675
rfemur -11.2782 -9.66923 16.882
rtibia 49.1478
rfoot -37.4555 -15.692
rtoes 6.82169
lfemur -7.36535 -5.5734 -27.0672
ltibia 36.9058
lfoot -25.0242 -4.98517
ltoes 25.8481
23
root -37.343 15.2766 -16.3184 16.0518 77.364 16.6538
lowerback -2.47533 -2.95391 -0.92355
upperback 6.7616 -3.76459 -0.399122
thorax 8.51762 -1.84502 -0.268051
lowerneck -10.3248 1.39972 -20.0341
upperneck 3.72306 3.56479 17.1391
head 2.11474 2.16749 8.86257
rclavicle 5.96354e-016 9.14409e-015
rhumerus -32.0853 -1.45775 -90.4722
rradius 79.2499
rwrist 15.2937
rhand -21.7934 3.88934
rfingers 7.12502
rthumb 4.60829 -26.0405
lclavicle 5.96354e-016 9.14409e-015
lhumerus -34.4746 -14.8449 105.72
lradius 109.809
lwrist 27.2808
lhand -11.1773 26.7508
lfingers 7.12502
lthumb 14.8497 56.1986
rfemur -11.6786 -9.41653 17.1897
rtibia 49.603
rfoot -37.4565 -15.6914
rtoes 7.72764
lfemur -7.65715 -5.55549 -26.8484
ltibia 37.2868
lfoot -25.5901 -4.73165
ltoes 25.2344
24
root -37.3394 15.2594 -16.3065 15.703 77.1784 15.8999
lowerback -2.28494 -2.91029 -1.21099
upperback 6.60641 -3.71196 -0.138251
thorax 8.27447 -1.85068 0.185673
lowerneck -11.1604 1.39892 -20.5624
upperneck 4.08789 3.75294 17.4294
head 2.30725 2.29242 9.08943
rclavicle 6.11263e-014 -1.74931e-014
rhumerus -32.114 -1.22388 -90.2916
rradius 79.2728
rwrist 14.5702
rhand -21.9936 3.07361
rfingers 7.12502
rthumb 4.41495 -26.8604
lclavicle 6.11263e-014 -1.74931e-014
lhumerus -34.3328 -14.9135 106.084
lradius 109.715
lwrist 27.1059
lhand -11.0705 26.5359
lfingers 7.12502
lthumb 14.9526 55.9761
rfemur -12.3736 -9.33385 17.4507
rtibia 50.1346
rfoot -37.1852 -15.44
rtoes 9.6208
lfemur -8.31638 -5.57839 -26.6425
ltibia 37.7722
lfoot -25.9955 -4.49809
ltoes 24.0689
25
root -37.3232 15.2421 -16.2967 15.4076 77.0338 15.3836
lowerback -2.68105 -2.85784 -0.781659
upperback 6.93901 -3.63024 -0.50502
thorax 8.81507 -1.76164 -0.462028
lowerneck -12.012 1.33804 -20.5773
upperneck 4.03359 3.82041 18.0666
head 2.40996 2.39314 9.34064
rclavicle -2.37548e-014 7.95139e-016
rhumerus -31.6078 -1.96343 -90.795
rradius 79.2482
rwrist 15.4523
rhand -22.0529 2.32377
rfingers 7.12502
rthumb 4.35765 -27.6114
lclavicle -2.37548e-014 7.95139e-016
lhumerus -33.8366 -15.6101 105.444
lradius 109.657
lwrist 26.6154
lhand -10.9415 26.3929
lfingers 7.12502
lthumb 15.0769 55.8239
rfemur -12.676 -9.28504 17.599
rtibia 50.3517
rfoot -37.291 -15.475
rtoes 9.5978
lfemur -8.89041 -5.78189 -26.5336
ltibia 38.4136
lfoot -26.4248 -4.20142
ltoes 22.7938
26
root -37.301 15.2041 -16.2935 15.468 76.9163 15.3548
lowerback -2.55314 -2.96111 -1.18781
upperback 6.75345 -3.77343 -0.169235
thorax 8.59011 -1.87622 0.114291
lowerneck -12.1422 1.5259 -21.3143
upperneck 4.13079 4.1951 18.3061
head 2.36187 2.58099 9.56704
rclavicle -3.27995e-015 1.31198e-014
rhumerus -32.0978 -1.33673 -90.3968
rradius 79.4493
rwrist 15.0512
rhand -22.1265 1.31443
rfingers 7.12502
rthumb 4.28662 -28.6222
lclavicle -3.27995e-015 1.31198e-014
lhumerus -33.9983 -15.228 106.1
lradius 109.557
lwrist 26.1492
lhand -10.9063 26.2889
lfingers 7.12502
lthumb 15.1107 55.7173
rfemur -12.9436 -9.40537 17.5322
rtibia 50.8306
rfoot -38.003 -15.7925
rtoes 6.98215
lfemur -8.94784 -5.82907 -26.6493
ltibia 38.9968
lfoot -27.3611 -4.2742
ltoes 23.4478
27
root -37.2526 15.2259 -16.2849 15.3414 76.7179 15.1176
lowerback -2.58689 -3.0493 -1.21815
upperback 6.63259 -3.89833 -0.118811
thorax 8.48621 -1.94326 0.173396
lowerneck -12.124 1.52713 -21.5443
upperneck 4.40932 4.1934 18.4468
head 2.43131 2.57599 9.66314
rclavicle 2.40529e-014 -9.93923e-015
rhumerus -32.3678 -1.022 -90.4016
rradius 79.4343
rwrist 15.3712
rhand -22.171 0.513612
rfingers 7.12502
rthumb 4.24363 -29.4239
lclavicle 2.40529e-014 -9.93923e-015
lhumerus -34.3364 -14.9023 106.264
lradius 109.429
lwrist 26.0278
lhand -10.8542 26.1481
lfingers 7.12502
lthumb 15.1609 55.5727
rfemur -12.9126 -9.12116 17.5475
rtibia 50.9755
rfoot -38.5231 -16.1109
rtoes 5.48183
lfemur -9.63626 -6.35876 -26.6663
ltibia 39.5286
lfoot -26.6266 -3.10256
ltoes 19.0669
28
root -37.2399 15.1554 -16.2808 15.3361 76.5596 14.9072
lowerback -2.70679 -3.12198 -1.14185
upperback 6.62856 -3.99819 -0.161018
thorax 8.54537 -1.9856 0.0697448
lowerneck -12.8913 1.6244 -22.2937
upperneck 4.54586 4.55724 19.2909
head 2.48618 2.81614 10.132
rclavicle -2.05742e-014 3.97569e-015
rhumerus -32.4096 -0.532837 -90.6853
rradius 79.5577
rwrist 14.5041
rhand -22.2675 -0.515297
rfingers 7.12502
rthumb 4.15046 -30.4546
lclavicle -2.05742e-014 3.97569e-015
lhumerus -33.7402 -15.1678 106.066
lradius 109.139
lwrist 25.8488
lhand -10.701 25.9624
lfingers 7.12502
lthumb 15.3085 55.3758
rfemur -13.3728 -8.95807 17.6135
rtibia 51.405
rfoot -38.6383 -16.2322
rtoes 5.32334
lfemur -9.39991 -6.09266 -26.7526
ltibia 39.9539
lfoot -28.3163 -4.24731
ltoes 23.8452
29
root -37.2017 15.1597 -16.2699 14.8781 76.3617 14.2535
lowerback -2.68173 -3.10947 -1.0146
upperback 6.63674 -3.99001 -0.164981
thorax 8.52948 -1.97307 -0.0027361
lowerneck -13.3076 1.34037 -22.3897
upperneck 4.96403 4.21816 19.5155
head 2.74469 2.66715 10.2505
rclavicle 1.10325e-014 -6.75868e-015
rhumerus -32.4192 -0.481062 -90.7297
rradius 79.6619
rwrist 14.4142
rhand -22.2718 -1.41257
rfingers 7.12502
rthumb 4.14633 -31.352
lclavicle 1.10325e-014 -6.75868e-015
lhumerus -31.3606 -15.8175 105.838
lradius 107.669
lwrist 25.696
lhand -10.2089 25.347
lfingers 7.12502
lthumb 15.7824 54.7236
rfemur -13.3834 -9.00152 17.6882
rtibia 51.3522
rfoot -38.7535 -15.8933
rtoes 5.58199
lfemur -9.77973 -6.1049 -26.6112
ltibia 40.2538
lfoot -28.3912 -3.95159
ltoes 22.0792
30
root -37.1689 15.1434 -16.2442 9.38943 75.8127 8.89108
lowerback -2.38097 -2.7864 -0.312066
upperback 6.90427 -3.62789 0.276024
thorax 8.62221 -1.76233 0.115765
lowerneck -14.3045 1.46092 -23.0318
upperneck 4.99741 4.68378 20.1556
head 2.78817 2.96586 10.645
rclavicle 6.86801e-014 -1.94809e-014
rhumerus -32.1519 -0.725329 -90.6117
rradius 79.5872
rwrist 14.489
rhand -22.2875 -2.28491
rfingers 7.12502
rthumb 4.13114 -32.2246
lclavicle 6.86801e-014 -1.94809e-014
lhumerus -30.266 -16.4156 105.951
lradius 106.999
lwrist 25.8411
lhand -10.0285 25.1335
lfingers 7.12502
lthumb 15.9562 54.4963
rfemur -12.929 -7.54095 19.2485
rtibia 51.0452
rfoot -38.7822 -16.5677
rtoes 5.50695
lfemur -9.35091 -5.17439 -25.2827
ltibia 40.6865
lfoot -29.2429 -4.56548
ltoes 23.1635
